<svg width="31" height="31" viewBox="0 0 31 31" fill="none" xmlns="http://www.w3.org/2000/svg">
<path d="M15.8483 2.29785C13.2349 2.29785 10.6802 3.07281 8.5073 4.52472C6.33435 5.97664 4.64075 8.0403 3.64065 10.4548C2.64055 12.8692 2.37888 15.526 2.88873 18.0892C3.39857 20.6523 4.65703 23.0067 6.50497 24.8547C8.35291 26.7026 10.7073 27.9611 13.2705 28.4709C15.8337 28.9808 18.4904 28.7191 20.9049 27.719C23.3193 26.7189 25.383 25.0253 26.8349 22.8524C28.2868 20.6794 29.0618 18.1247 29.0618 15.5113C29.0618 12.0069 27.6697 8.646 25.1917 6.16799C22.7136 3.68998 19.3527 2.29785 15.8483 2.29785ZM15.8483 27.0731C13.5616 27.0731 11.3263 26.395 9.42492 25.1246C7.5236 23.8542 6.04169 22.0485 5.16661 19.9358C4.29152 17.8232 4.06256 15.4985 4.50867 13.2557C4.95479 11.013 6.05594 8.95285 7.67289 7.33591C9.28984 5.71896 11.35 4.61781 13.5927 4.17169C15.8355 3.72558 18.1602 3.95454 20.2728 4.82963C22.3855 5.70471 24.1912 7.18662 25.4616 9.08794C26.732 10.9893 27.4101 13.2246 27.4101 15.5113C27.4101 18.5777 26.192 21.5185 24.0237 23.6868C21.8555 25.855 18.9147 27.0731 15.8483 27.0731Z" fill="#B8860B"/>
<path d="M16.6081 15.8417V9.52396C16.6081 9.30494 16.5211 9.09488 16.3662 8.94C16.2113 8.78513 16.0013 8.69812 15.7823 8.69812C15.5632 8.69812 15.3532 8.78513 15.1983 8.94C15.0434 9.09488 14.9564 9.30494 14.9564 9.52396V16.7253L19.8289 20.0287C19.9186 20.0962 20.0212 20.1447 20.1304 20.1712C20.2395 20.1977 20.3529 20.2017 20.4636 20.1829C20.5743 20.1641 20.6801 20.1229 20.7743 20.0618C20.8686 20.0007 20.9494 19.9211 21.0118 19.8277C21.0742 19.7344 21.117 19.6293 21.1374 19.5188C21.1578 19.4084 21.1555 19.295 21.1306 19.1854C21.1056 19.0759 21.0586 18.9727 20.9925 18.8819C20.9263 18.7912 20.8423 18.7149 20.7456 18.6578L16.6081 15.8417Z" fill="#B8860B"/>
<path d="M7.58991 15.4617C7.58236 13.976 7.97814 12.5162 8.73505 11.2378C9.49197 9.95936 10.5816 8.91033 11.8879 8.20254C13.1941 7.49474 14.668 7.15471 16.1523 7.21871C17.6366 7.2827 19.0757 7.74831 20.3161 8.5659L21.0181 7.44276C19.8398 6.67092 18.5052 6.16963 17.1102 5.9749C15.7151 5.78016 14.2943 5.89681 12.9497 6.31647C11.6051 6.73613 10.3701 7.44838 9.33346 8.40205C8.29683 9.35572 7.48429 10.5271 6.95421 11.8322C6.42412 13.1372 6.18964 14.5434 6.26762 15.9498C6.3456 17.3562 6.7341 18.7279 7.40521 19.9664C8.07632 21.2048 9.01338 22.2792 10.1491 23.1124C11.2848 23.9457 12.5909 24.517 13.9737 24.7855L14.1967 23.5219C12.3368 23.1423 10.6646 22.1336 9.46128 20.6656C8.25798 19.1976 7.59712 17.3598 7.58991 15.4617Z" fill="#B8860B"/>
</svg>
