<svg width="50" height="50" viewBox="0 0 50 50" fill="none" xmlns="http://www.w3.org/2000/svg">
<path d="M24.1683 30.8354L28.9486 35.6157C29.9676 36.6343 31.3084 37.2678 32.7422 37.4081C34.1761 37.5485 35.6143 37.187 36.8115 36.3854C38.0086 35.5838 38.8905 34.3916 39.3068 33.0123C39.7231 31.633 39.648 30.152 39.0943 28.822L37.9492 26.0718L37.9825 26.0301L38.0025 26.0018C38.2678 25.6481 38.3817 25.2036 38.3191 24.766C38.2566 24.3284 38.0228 23.9335 37.6692 23.6683C37.4941 23.5369 37.2948 23.4414 37.0828 23.3871C36.8707 23.3327 36.6501 23.3207 36.4334 23.3517C35.9958 23.4142 35.6009 23.648 35.3357 24.0016C34.839 24.6633 32.0155 27.5019 25.0017 27.5019C17.9879 27.5019 15.1643 24.6633 14.6676 24.0016C14.5363 23.8265 14.3718 23.679 14.1834 23.5675C13.9951 23.456 13.7866 23.3826 13.5699 23.3517C13.3533 23.3207 13.1326 23.3327 12.9206 23.3871C12.7085 23.4414 12.5093 23.5369 12.3342 23.6683C11.9805 23.9335 11.7467 24.3284 11.6842 24.766C11.6217 25.2036 11.7356 25.6481 12.0008 26.0018C13.1309 27.5085 16.7545 30.6121 24.1949 30.8238L24.1683 30.8354ZM13.9159 15.6877C13.5659 16.0678 13.3826 16.5745 13.3042 16.9862C13.2624 17.2011 13.1787 17.4057 13.0578 17.5883C12.9369 17.7709 12.7813 17.9279 12.5997 18.0503C12.4182 18.1727 12.2143 18.2582 11.9997 18.3018C11.7851 18.3455 11.564 18.3464 11.3491 18.3046C11.1341 18.2628 10.9295 18.179 10.747 18.0582C10.5644 17.9373 10.4074 17.7816 10.285 17.6001C10.1625 17.4185 10.0771 17.2146 10.0334 17.0001C9.9898 16.7855 9.98886 16.5644 10.0307 16.3495C10.179 15.5894 10.5474 14.4277 11.4608 13.4343C12.4225 12.3859 13.8609 11.6675 15.8344 11.6675C17.8262 11.6675 19.2713 12.4209 20.228 13.4709C21.1347 14.466 21.5114 15.6244 21.6448 16.3828C21.6822 16.5985 21.6768 16.8195 21.6288 17.0331C21.5808 17.2467 21.4913 17.4488 21.3652 17.6278C21.2391 17.8068 21.0791 17.9592 20.8941 18.0763C20.7091 18.1934 20.5029 18.273 20.2872 18.3104C20.0715 18.3479 19.8505 18.3424 19.6369 18.2945C19.4233 18.2465 19.2212 18.1569 19.0422 18.0309C18.8632 17.9048 18.7108 17.7447 18.5937 17.5597C18.4765 17.3748 18.397 17.1685 18.3596 16.9528C18.2762 16.4942 18.07 16.0668 17.7629 15.7161C17.4512 15.3711 16.9045 15.001 15.8344 15.001C14.746 15.001 14.2143 15.3627 13.9159 15.6877ZM32.2522 15.6877C31.9021 16.0678 31.7188 16.5745 31.6388 16.9862C31.5494 17.4152 31.2946 17.7917 30.9296 18.0342C30.5646 18.2768 30.1188 18.3659 29.6887 18.2821C29.2585 18.1984 28.8787 17.9487 28.6313 17.587C28.3839 17.2253 28.2889 16.7807 28.3669 16.3495C28.5136 15.5894 28.8836 14.4277 29.7953 13.4343C30.7571 12.3859 32.1955 11.6675 34.1689 11.6675C36.1624 11.6675 37.6058 12.4209 38.5626 13.4709C39.4693 14.466 39.846 15.6244 39.9793 16.3828C40.0168 16.5985 40.0113 16.8195 39.9634 17.0331C39.9154 17.2467 39.8258 17.4488 39.6998 17.6278C39.5737 17.8068 39.4136 17.9592 39.2286 18.0763C39.0437 18.1934 38.8375 18.273 38.6217 18.3104C38.406 18.3479 38.1851 18.3424 37.9714 18.2945C37.7578 18.2465 37.5558 18.1569 37.3768 18.0309C37.1978 17.9048 37.0453 17.7447 36.9282 17.5597C36.8111 17.3748 36.7315 17.1685 36.6941 16.9528C36.6108 16.4942 36.4046 16.0667 36.0974 15.7161C35.7857 15.3711 35.239 15.001 34.1689 15.001C33.0805 15.001 32.5505 15.3627 32.2522 15.6877Z" fill="#B8860B"/>
<path d="M25 0C16.8261 0 10.5224 2.75685 6.27209 7.37216C2.04347 11.9641 0 18.2312 0 25C0 31.7688 2.04347 38.0342 6.27209 42.6278C10.5224 47.2432 16.8261 50 25 50C33.1739 50 39.4776 47.2432 43.7262 42.6278C47.9549 38.0359 50 31.7688 50 25C50 18.2312 47.9549 11.9641 43.7262 7.37216C39.476 2.75685 33.1739 0 25.0017 0H25ZM3.33356 25C3.33356 18.8829 5.17701 13.4826 8.72558 9.63064C12.2508 5.80039 17.6145 3.33356 25 3.33356C32.3838 3.33356 37.7475 5.80039 41.2744 9.63064C44.823 13.4826 46.6664 18.8813 46.6664 24.9983C46.6664 31.1171 44.823 36.5158 41.2744 40.3694C37.7475 44.1996 32.3855 46.6664 25 46.6664C17.6162 46.6664 12.2525 44.1996 8.72558 40.3694C5.17535 36.5191 3.33356 31.1187 3.33356 25.0017V25Z" fill="#B8860B"/>
</svg>
