<svg width="59" height="46" viewBox="0 0 59 46" fill="none" xmlns="http://www.w3.org/2000/svg">
<path d="M55.275 4.44739V41.6118H4.56003V4.44739H55.275ZM58.8975 0.730957H0.937531V45.3282H58.8975V0.730957Z" fill="#B8860B"/>
<path d="M33.54 11.8801H51.6525V15.5966H33.54V11.8801ZM33.54 19.313H51.6525V23.0294H33.54V19.313ZM33.54 26.7459H40.785V30.4623H33.54V26.7459ZM24.4838 11.8801C22.3103 11.8801 20.499 14.11 19.05 15.5966C17.601 14.11 15.7898 11.8801 13.6163 11.8801C8.18253 11.8801 6.00903 18.9414 9.99378 22.6578L19.05 30.4623L28.1063 22.6578C32.091 18.9414 29.9175 11.8801 24.4838 11.8801Z" fill="#B8860B"/>
</svg>
