<svg width="56" height="50" viewBox="0 0 56 50" fill="none" xmlns="http://www.w3.org/2000/svg">
<path d="M16.1111 31.1111V13.8889H5.55556C2.5 13.8889 0 16.3889 0 19.4444V36.1111C0 39.1667 2.5 41.6667 5.55556 41.6667H8.33333V50L16.6667 41.6667H30.5556C33.6111 41.6667 36.1111 39.1667 36.1111 36.1111V31.0556C35.9285 31.0947 35.7423 31.1143 35.5556 31.1139H16.1111V31.1111ZM50 0H25C21.9444 0 19.4444 2.5 19.4444 5.55556V27.7778H38.8889L47.2222 36.1111V27.7778H50C53.0556 27.7778 55.5556 25.2806 55.5556 22.2222V5.55556C55.5556 2.5 53.0556 0 50 0Z" fill="#B8860B"/>
</svg>
