<svg width="33" height="32" viewBox="0 0 33 32" fill="none" xmlns="http://www.w3.org/2000/svg">
<path d="M22.1574 14.5941C24.3606 14.5941 26.1258 12.8156 26.1258 10.6124C26.1258 8.40913 24.3606 6.63062 22.1574 6.63062C19.9541 6.63062 18.1756 8.40913 18.1756 10.6124C18.1756 12.8156 19.9541 14.5941 22.1574 14.5941ZM11.5394 14.5941C13.7426 14.5941 15.5079 12.8156 15.5079 10.6124C15.5079 8.40913 13.7426 6.63062 11.5394 6.63062C9.33616 6.63062 7.55765 8.40913 7.55765 10.6124C7.55765 12.8156 9.33616 14.5941 11.5394 14.5941ZM11.5394 17.2486C8.4469 17.2486 2.24866 18.8015 2.24866 21.894V25.2121H20.8301V21.894C20.8301 18.8015 14.6319 17.2486 11.5394 17.2486ZM22.1574 17.2486C21.7725 17.2486 21.3345 17.2751 20.8699 17.315C22.4095 18.4298 23.4846 19.9296 23.4846 21.894V25.2121H31.4481V21.894C31.4481 18.8015 25.2498 17.2486 22.1574 17.2486Z" fill="#B8860B"/>
</svg>
